<?xml version="1.0" standalone="no"?>
<!DOCTYPE svg PUBLIC "-//W3C//DTD SVG 20010904//EN"
 "http://www.w3.org/TR/2001/REC-SVG-20010904/DTD/svg10.dtd">
<svg version="1.0" xmlns="http://www.w3.org/2000/svg"
 width="1920.000000pt" height="463.000000pt" viewBox="0 0 1920.000000 463.000000"
 preserveAspectRatio="xMidYMid meet">

<g transform="translate(0.000000,463.000000) scale(0.100000,-0.100000)"
fill="#000000" stroke="none">
<path d="M503 4508 c-4 -7 -10 -278 -13 -602 l-5 -590 -190 -76 c-173 -69
-190 -78 -193 -102 -3 -25 15 -33 995 -425 l998 -399 990 397 c545 219 994
404 999 412 5 8 7 21 4 28 -3 8 -92 48 -197 89 l-191 75 0 587 c0 520 -2 588
-16 602 -14 14 -172 16 -1594 16 -1252 0 -1580 -3 -1587 -12z m2797 -708 c0
-176 -2 -320 -5 -320 -3 0 -274 108 -602 240 l-597 240 -591 -236 c-324 -130
-596 -238 -602 -241 -10 -4 -13 63 -13 316 l0 321 1205 0 1205 0 0 -320z
m-731 -461 c262 -105 480 -194 484 -199 12 -11 -949 -393 -974 -387 -47 12
-958 381 -953 386 4 4 948 386 963 390 2 1 218 -85 480 -190z"/>
<path d="M13530 3116 c-301 -64 -468 -254 -447 -506 9 -98 32 -154 94 -220 90
-97 160 -128 465 -205 100 -26 208 -59 238 -74 134 -65 135 -197 2 -259 -54
-26 -64 -27 -207 -26 -134 0 -160 3 -240 28 -49 15 -124 45 -167 68 -43 22
-85 38 -93 34 -16 -6 -103 -182 -112 -228 -4 -23 1 -30 38 -54 59 -38 202 -91
313 -117 132 -31 406 -30 519 1 231 63 368 196 399 387 22 131 -19 263 -107
344 -86 79 -166 111 -458 185 -274 69 -327 101 -327 194 0 62 34 112 97 143
44 22 61 24 193 24 159 0 196 -7 329 -63 60 -25 88 -32 99 -25 20 12 103 212
100 238 -4 28 -114 80 -236 112 -81 21 -125 26 -262 29 -114 2 -185 -1 -230
-10z"/>
<path d="M14898 3120 c-136 -23 -248 -74 -331 -150 -104 -95 -142 -193 -135
-349 6 -119 28 -172 101 -246 85 -85 172 -121 472 -196 188 -48 241 -69 285
-114 81 -83 18 -204 -121 -234 -162 -35 -410 8 -576 100 -33 18 -66 30 -74 27
-9 -3 -39 -59 -68 -123 -51 -114 -52 -118 -34 -138 27 -30 168 -93 272 -121
189 -51 428 -59 581 -20 274 70 421 246 408 486 -6 110 -33 171 -107 241 -87
84 -179 123 -441 187 -191 47 -276 78 -310 111 -80 81 -28 205 102 244 67 20
242 20 327 0 36 -9 105 -32 153 -51 49 -20 94 -34 101 -31 17 6 108 232 101
250 -6 16 -109 65 -189 91 -129 41 -381 59 -517 36z"/>
<path d="M16858 3111 c-282 -62 -440 -244 -426 -492 7 -107 35 -174 102 -242
87 -87 161 -118 456 -193 271 -68 347 -115 337 -210 -6 -58 -31 -90 -95 -121
-54 -27 -64 -28 -202 -28 -171 0 -245 17 -403 92 -89 42 -99 45 -113 31 -20
-20 -104 -205 -104 -229 0 -24 46 -55 138 -94 168 -70 348 -101 537 -92 275
14 467 111 550 280 44 89 58 172 46 260 -17 119 -65 195 -164 260 -78 50 -141
73 -369 132 -312 81 -358 108 -358 204 0 63 30 107 95 140 43 23 65 26 167 30
139 4 227 -13 356 -67 58 -24 89 -32 99 -26 21 13 107 229 99 249 -8 23 -124
73 -236 102 -133 35 -384 42 -512 14z"/>
<path d="M4907 3098 c-16 -12 -17 -67 -15 -773 l3 -760 440 0 c425 0 443 1
525 23 230 61 409 199 504 389 60 119 71 176 71 363 0 159 -2 168 -32 253 -41
117 -84 186 -168 272 -133 136 -303 210 -535 235 -144 15 -772 13 -793 -2z
m867 -316 c201 -74 306 -230 306 -455 0 -219 -113 -378 -319 -450 -48 -17 -91
-21 -288 -25 l-233 -4 0 482 0 482 238 -4 c212 -4 243 -7 296 -26z"/>
<path d="M7107 3103 c-9 -2 -26 -21 -36 -41 -72 -143 -652 -1465 -649 -1479 3
-16 18 -18 161 -21 86 -1 165 2 175 7 10 5 45 76 82 165 l64 156 360 -2 360
-3 61 -146 c33 -81 67 -154 74 -163 19 -23 348 -24 357 -1 6 15 -648 1490
-672 1515 -12 12 -46 15 -167 17 -84 1 -160 -1 -170 -4z m287 -663 l115 -275
-241 -3 c-133 -1 -242 -1 -244 1 -2 2 50 133 116 292 66 159 120 291 121 294
1 10 14 -21 133 -309z"/>
<path d="M7936 3094 c-23 -23 -23 -245 0 -268 13 -14 50 -16 250 -16 l234 0 2
-622 3 -623 164 -3 c112 -2 168 1 177 9 12 10 14 115 14 625 l0 614 226 0
c136 0 233 4 245 10 17 10 19 22 19 140 0 118 -2 130 -19 140 -13 6 -238 10
-660 10 -568 0 -641 -2 -655 -16z"/>
<path d="M9764 3101 c-12 -5 -24 -15 -27 -23 -3 -7 -152 -341 -331 -743 -180
-401 -325 -739 -324 -750 3 -19 12 -20 161 -23 86 -1 165 2 175 7 9 5 46 79
81 165 l65 156 360 -2 360 -3 60 -146 c34 -80 67 -154 75 -163 11 -14 38 -16
183 -16 137 0 170 3 174 14 6 16 -648 1491 -672 1516 -12 12 -47 15 -167 17
-84 1 -161 -2 -173 -6z m290 -661 l114 -275 -240 -3 c-133 -1 -243 -1 -244 1
-2 2 51 135 118 297 93 224 124 289 130 274 5 -10 60 -143 122 -294z"/>
<path d="M11991 3093 c-25 -20 -683 -1488 -679 -1513 3 -13 29 -15 169 -18
145 -2 168 0 180 14 8 9 41 83 74 163 l60 146 361 3 360 2 64 -156 c36 -88 72
-160 82 -165 10 -5 91 -8 180 -7 143 3 163 5 166 20 5 25 -647 1479 -675 1506
-23 21 -32 22 -172 22 -127 0 -152 -3 -170 -17z m287 -628 c61 -148 114 -278
118 -287 6 -17 -10 -18 -236 -18 -234 0 -242 1 -237 19 12 48 233 569 238 563
3 -4 56 -128 117 -277z"/>
<path d="M15876 3094 c-14 -14 -16 -97 -16 -763 0 -568 3 -750 12 -759 17 -17
319 -17 336 0 9 9 12 191 12 759 0 666 -2 749 -16 763 -13 13 -42 16 -164 16
-122 0 -151 -3 -164 -16z"/>
<path d="M17747 3092 c-14 -15 -17 -41 -17 -134 0 -99 3 -117 18 -131 16 -15
49 -17 250 -17 l232 0 0 -609 c0 -335 3 -616 6 -625 5 -14 30 -16 168 -16 113
0 166 4 174 12 9 9 12 162 12 625 l0 613 226 0 c136 0 233 4 245 10 17 10 19
22 19 140 0 118 -2 130 -19 140 -13 6 -237 10 -659 10 -606 0 -640 -1 -655
-18z"/>
<path d="M490 756 c0 -518 2 -586 16 -600 14 -14 172 -16 1588 -16 1511 0
1574 1 1589 18 15 17 17 73 17 601 0 551 -1 583 -17 577 -10 -4 -100 -39 -200
-79 l-183 -72 0 -322 0 -323 -1205 0 -1205 0 -2 322 -3 322 -190 78 c-104 42
-193 78 -197 78 -5 0 -8 -263 -8 -584z"/>
<path d="M15565 1288 c-2 -7 -64 -266 -138 -576 l-134 -563 116 3 116 3 23
103 24 103 121 -3 122 -3 17 -80 c10 -44 21 -90 23 -102 5 -22 9 -23 120 -23
103 0 115 2 114 18 0 9 -62 267 -137 572 l-138 555 -122 3 c-93 2 -123 -1
-127 -10z m168 -575 c20 -92 35 -168 33 -170 -2 -2 -37 -3 -78 -1 l-74 3 35
168 c19 92 38 167 41 167 3 0 23 -75 43 -167z"/>
<path d="M17281 1101 c-42 -39 -44 -104 -5 -150 75 -90 218 -12 185 100 -24
81 -119 107 -180 50z"/>
<path d="M18645 996 c-127 -36 -192 -200 -131 -332 16 -34 48 -72 100 -120
122 -110 143 -160 85 -208 -38 -32 -93 -34 -149 -6 l-40 20 0 -89 0 -89 40
-16 c52 -21 163 -21 225 0 134 46 190 204 125 351 -14 33 -52 77 -120 143
-109 104 -120 128 -77 168 29 27 68 28 125 2 l42 -19 0 89 0 88 -30 11 c-53
18 -142 21 -195 7z"/>
<path d="M16122 653 c3 -380 5 -393 65 -455 82 -86 316 -75 379 18 43 63 44
72 44 434 l0 350 -90 0 -90 0 0 -323 c0 -355 -2 -367 -59 -367 -60 0 -61 4
-61 363 l0 327 -96 0 -95 0 3 -347z"/>
<path d="M16700 575 l0 -425 90 0 90 0 1 178 1 177 17 -40 c10 -22 39 -102 66
-177 l47 -138 94 0 c52 0 94 4 94 9 0 5 -31 89 -69 187 l-69 179 36 20 c106
60 121 280 25 385 -51 57 -103 70 -280 70 l-143 0 0 -425z m256 243 c28 -13
44 -49 44 -99 0 -31 -7 -47 -29 -70 -36 -36 -76 -39 -85 -6 -7 28 -8 182 0
189 6 7 41 0 70 -14z"/>
<path d="M17510 920 l0 -80 60 0 60 0 0 -345 0 -345 90 0 90 0 2 342 3 343 27
3 c19 2 42 22 80 70 30 37 58 73 62 80 6 9 -44 12 -233 12 l-241 0 0 -80z"/>
<path d="M18065 988 c-7 -24 -195 -820 -195 -829 0 -5 38 -9 83 -9 l84 0 12
58 c22 100 12 92 111 92 l89 0 10 -37 c5 -21 13 -55 17 -75 l6 -38 89 0 c66 0
87 3 84 13 -2 6 -47 190 -100 407 -53 217 -98 403 -101 413 -5 14 -18 17 -95
17 -63 0 -91 -4 -94 -12z m126 -426 l25 -117 -54 -3 c-30 -2 -55 -2 -57 0 -5
6 50 247 55 241 3 -2 17 -57 31 -121z"/>
<path d="M17260 495 l0 -345 95 0 95 0 0 345 0 345 -95 0 -95 0 0 -345z"/>
<path d="M18920 220 c0 -6 5 -10 10 -10 6 0 10 -13 10 -30 0 -16 5 -30 10 -30
6 0 10 14 10 30 0 20 5 30 15 30 10 0 15 -10 15 -30 0 -32 16 -41 23 -12 4 16
5 16 6 0 1 -21 17 -24 24 -5 4 10 6 10 6 0 1 -7 6 -13 11 -13 6 0 10 18 10 40
0 44 -15 53 -30 18 l-9 -23 -6 21 c-6 18 -15 22 -56 23 -27 0 -49 -4 -49 -9z"/>
</g>
</svg>
